<svg width="113" height="113" viewBox="0 0 113 113" fill="none" xmlns="http://www.w3.org/2000/svg">
<g clip-path="url(#clip0_3_2)">
<path d="M102.806 63.5566C103.837 63.5566 104.67 62.7216 104.67 61.6927V54.2369C104.67 53.2081 103.837 52.373 102.806 52.373H93.486V50.5088C93.486 49.48 92.6529 48.6449 91.6221 48.6449C90.5913 48.6449 89.7582 49.48 89.7582 50.5088V52.3728H37.5668V50.5088C37.5668 49.48 36.7318 48.6449 35.7029 48.6449C34.6741 48.6449 33.839 49.48 33.839 50.5088V52.3728H24.5191C23.4902 52.3728 22.6552 53.2078 22.6552 54.2367V61.6927C22.6552 62.7216 23.4902 63.5566 24.5191 63.5566H35.7029H91.6223H102.806ZM26.383 59.8288V56.1008H100.942V59.8288H26.383Z" fill="#D4C17F"/>
<path d="M67.3904 41.1889C64.3765 41.1889 62.4285 43.4796 62.2159 43.7426C61.5709 44.5349 61.6904 45.6924 62.4787 46.3448C63.269 46.999 64.4378 46.8854 65.0995 46.1063C65.1069 46.0932 66.1172 44.9171 67.3902 44.9171C68.6633 44.9171 69.6718 46.0934 69.6718 46.0934C70.0409 46.5464 70.5776 46.7813 71.12 46.7813C71.5337 46.7813 71.9476 46.6452 72.2943 46.3638C73.094 45.7151 73.2133 44.5408 72.5645 43.743C72.3524 43.4798 70.4044 41.1889 67.3904 41.1889Z" fill="#D4C17F"/>
<path d="M102.806 78.4685C103.837 78.4685 104.67 77.6335 104.67 76.6046V69.1488C104.67 68.12 103.837 67.2849 102.806 67.2849H93.486V65.421C93.486 64.3922 92.6529 63.5571 91.6221 63.5571C90.5913 63.5571 89.7582 64.3922 89.7582 65.421V67.2849H37.5668V65.421C37.5668 64.3922 36.7318 63.5571 35.7029 63.5571C34.6741 63.5571 33.839 64.3922 33.839 65.421V67.2849H24.5191C23.4902 67.2849 22.6552 68.12 22.6552 69.1488V76.6046C22.6552 77.6335 23.4902 78.4685 24.5191 78.4685H35.7029H91.6223H102.806ZM26.383 74.7405V71.0125H100.942V74.7405H26.383Z" fill="#D4C17F"/>
<path d="M77.1278 36.7712C77.497 37.226 78.0337 37.4608 78.5761 37.4608C78.9898 37.4608 79.4037 37.3248 79.7504 37.0434C80.5501 36.3947 80.6693 35.2204 80.0206 34.4226C79.808 34.1599 77.8602 31.8689 74.8461 31.8689C71.8319 31.8689 69.8841 34.1596 69.6715 34.4226C69.0265 35.2149 69.146 36.3724 69.9343 37.0249C70.7246 37.681 71.8935 37.5655 72.5531 36.7863C72.5625 36.7732 73.5728 35.5972 74.8458 35.5972C76.1195 35.5969 77.1278 36.7712 77.1278 36.7712Z" fill="#D4C17F"/>
<path d="M2.16043 24.5996C2.25545 25.5522 3.05711 26.2772 4.01516 26.2772H15.199C16.1571 26.2772 16.9585 25.5522 17.0538 24.5996L18.9177 5.95988C18.9699 5.43433 18.7984 4.91423 18.4443 4.5228C18.092 4.13311 17.5907 3.90965 17.0632 3.90965H11.471V2.0453C11.471 1.01647 10.6359 0.181396 9.6071 0.181396C8.57827 0.181396 7.7432 1.01647 7.7432 2.0453V3.90921H2.15126C1.62374 3.90921 1.12243 4.13289 0.77009 4.52236C0.416007 4.91379 0.244536 5.43389 0.296742 5.95944L2.16043 24.5996ZM15.0033 7.63724L13.5121 22.5492H5.70192L4.21066 7.63724H15.0033Z" fill="#D4C17F"/>
<path d="M52.4785 43.053C52.4785 45.1369 53.3304 47.0755 54.8774 48.5089C55.2352 48.8407 55.6902 49.0065 56.145 49.0065C56.6445 49.0065 57.1441 48.8051 57.5113 48.4099C58.2103 47.655 58.1674 46.475 57.4125 45.7743C56.6334 45.0548 56.2065 44.0873 56.2065 43.0528C56.2065 41.5093 57.1889 40.1096 58.6539 39.5709C59.2616 39.3473 59.7089 38.8235 59.8356 38.1878C59.9643 37.5522 59.7498 36.896 59.2764 36.4543C58.4973 35.7348 58.0705 34.7673 58.0705 33.7328C58.0705 31.7942 59.5971 30.1725 61.5449 30.0384C62.2607 29.9899 62.8832 29.5371 63.1497 28.8715C63.4145 28.2062 63.2764 27.4476 62.7919 26.92C62.1508 26.2211 61.7985 25.3301 61.7985 24.4131C61.7985 22.4745 63.3251 20.8528 65.2729 20.7187C65.9887 20.6702 66.6113 20.2174 66.8778 19.5518C67.1425 18.8864 67.0045 18.1278 66.52 17.6003C65.8806 16.9013 65.5265 16.0103 65.5265 15.0933C65.5265 13.4269 66.6617 11.9561 68.2851 11.5164C68.8015 11.3766 69.2301 11.0243 69.4669 10.549C69.7054 10.0737 69.7279 9.51644 69.5285 9.02431C69.3476 8.56756 69.2546 8.10164 69.2546 7.63746C69.2546 5.58155 70.9265 3.90943 72.9826 3.90943C75.0385 3.90943 76.7106 5.58133 76.7106 7.63746C76.7106 8.10164 76.6174 8.56756 76.4367 9.02431C76.2373 9.51644 76.2596 10.0737 76.4983 10.549C76.7351 11.0243 77.1637 11.3766 77.68 11.5164C79.3037 11.9564 80.4387 13.4271 80.4387 15.0933C80.4387 16.0103 80.0846 16.9013 79.4452 17.6003C78.9605 18.1278 78.8227 18.8864 79.0874 19.5518C79.3539 20.2171 79.9764 20.6702 80.6923 20.7187C82.64 20.8528 84.1667 22.4745 84.1667 24.4131C84.1667 25.3301 83.8126 26.2211 83.1732 26.92C82.6885 27.4476 82.5507 28.2062 82.8155 28.8715C83.0819 29.5369 83.7045 29.9899 84.4203 30.0384C86.3681 30.1725 87.8947 31.7942 87.8947 33.7328C87.8947 34.7673 87.4679 35.7348 86.6887 36.4543C86.2154 36.896 86.0009 37.5522 86.1296 38.1878C86.2562 38.8235 86.7036 39.3473 87.3133 39.5709C88.7766 40.1096 89.7588 41.5096 89.7588 43.0528C89.7588 44.0816 90.592 44.9167 91.6228 44.9167C92.6535 44.9167 93.4867 44.0816 93.4867 43.0528C93.4867 40.7824 92.4336 38.6705 90.7206 37.28C91.3097 36.2044 91.6228 34.9947 91.6228 33.7328C91.6228 30.8176 89.9078 28.2564 87.4065 27.0448C87.7272 26.2097 87.8949 25.3187 87.8949 24.4128C87.8949 21.4976 86.18 18.9365 83.6787 17.7248C83.9994 16.8897 84.1671 15.9987 84.1671 15.0929C84.1671 12.3751 82.6722 9.92033 80.372 8.62108C80.4168 8.29495 80.4391 7.96686 80.4391 7.63681C80.4382 3.52542 77.0944 0.181396 72.9824 0.181396C68.8703 0.181396 65.5265 3.52542 65.5265 7.63724C65.5265 7.96708 65.5488 8.29517 65.5936 8.62151C63.2935 9.92076 61.7985 12.3755 61.7985 15.0933C61.7985 15.9992 61.9662 16.8902 62.2869 17.7252C59.7854 18.9369 58.0707 21.4978 58.0707 24.4133C58.0707 25.3191 58.2384 26.2101 58.5591 27.0452C56.0576 28.2569 54.3429 30.8178 54.3429 33.7333C54.3429 34.9952 54.6561 36.2048 55.245 37.2804C53.5318 38.6708 52.4785 40.7826 52.4785 43.053Z" fill="#D4C17F"/>
<path d="M70.4083 26.13C71.3552 26.5214 72.4457 26.0703 72.8428 25.1234C72.8782 25.0338 72.9304 24.9351 72.9826 24.8381C73.0348 24.9314 73.0833 25.0282 73.1187 25.1158C73.4131 25.839 74.1104 26.2789 74.8465 26.2789C75.0813 26.2789 75.3181 26.2342 75.5472 26.1391C76.5016 25.7534 76.9621 24.6647 76.5743 23.7123C76.3675 23.2071 75.2305 20.6852 72.9824 20.6852C70.7345 20.6852 69.5973 23.2073 69.3904 23.7123C69.0047 24.661 69.4614 25.7385 70.4083 26.13Z" fill="#D4C17F"/>
<path d="M110.262 108.292H80.4382C79.4074 108.292 78.5743 109.127 78.5743 110.156C78.5743 111.185 79.4074 112.02 80.4382 112.02H110.262C111.293 112.02 112.126 111.185 112.126 110.156C112.126 109.127 111.293 108.292 110.262 108.292Z" fill="#D4C17F"/>
<path d="M110.262 82.1966H93.4862V80.3327C93.4862 79.3038 92.6531 78.4688 91.6223 78.4688C90.5915 78.4688 89.7584 79.3038 89.7584 80.3327V82.1966H37.5668V80.3327C37.5668 79.3038 36.7317 78.4688 35.7029 78.4688C34.6741 78.4688 33.839 79.3038 33.839 80.3327V82.1966H17.063C16.0341 82.1966 15.1991 83.0317 15.1991 84.0605V91.5163C15.1991 92.5452 16.0341 93.3802 17.063 93.3802H22.6549V102.7C22.6549 103.729 23.49 104.564 24.5188 104.564C25.5477 104.564 26.3827 103.729 26.3827 102.7V93.3802H100.942V102.7C100.942 103.729 101.775 104.564 102.806 104.564C103.837 104.564 104.67 103.729 104.67 102.7V93.3802H110.262C111.293 93.3802 112.126 92.5452 112.126 91.5163V84.0605C112.126 83.0317 111.293 82.1966 110.262 82.1966ZM108.398 89.6524H18.9269V85.9244H108.398V89.6524Z" fill="#D4C17F"/>
<path d="M28.2469 108.292H11.471V31.8691C11.471 30.8403 10.636 30.0052 9.60714 30.0052C8.57831 30.0052 7.74323 30.8403 7.74323 31.8691V108.292H2.15129C1.12246 108.292 0.287384 109.127 0.287384 110.156C0.287384 111.185 1.12224 112.02 2.15107 112.02H28.2469C29.2757 112.02 30.1108 111.185 30.1108 110.156C30.1108 109.127 29.2757 108.292 28.2469 108.292Z" fill="#D4C17F"/>
<path d="M72.9824 108.292H69.2543C68.2236 108.292 67.3904 109.127 67.3904 110.156C67.3904 111.185 68.2236 112.02 69.2543 112.02H72.9824C74.0132 112.02 74.8463 111.185 74.8463 110.156C74.8463 109.127 74.0132 108.292 72.9824 108.292Z" fill="#D4C17F"/>
<path d="M58.0705 108.292H39.4307C38.4019 108.292 37.5668 109.127 37.5668 110.156C37.5668 111.185 38.4019 112.02 39.4307 112.02H58.0705C59.1013 112.02 59.9344 111.185 59.9344 110.156C59.9344 109.127 59.1013 108.292 58.0705 108.292Z" fill="#D4C17F"/>
</g>
<defs>
<clipPath id="clip0_3_2">
<rect width="111.839" height="111.839" fill="white" transform="translate(0.28717 0.181396)"/>
</clipPath>
</defs>
</svg>
