<svg width="113" height="113" viewBox="0 0 113 113" fill="none" xmlns="http://www.w3.org/2000/svg">
<g clip-path="url(#clip0_5_62)">
<path d="M28.3652 95.2459H2.26942C1.23863 95.2459 0.405518 96.081 0.405518 97.1098C0.405518 98.1386 1.23863 98.9737 2.26942 98.9737H28.3652C29.396 98.9737 30.2291 98.1386 30.2291 97.1098C30.2291 96.081 29.396 95.2459 28.3652 95.2459Z" fill="#D4C17F"/>
<path d="M22.7733 91.5141C35.1072 91.5141 45.141 81.4784 45.141 69.1464C45.141 62.971 42.6786 57.2207 38.207 52.954C37.4652 52.2456 36.2815 52.2736 35.5714 53.0156C34.8612 53.7611 34.8892 54.9411 35.633 55.6512C39.359 59.2078 41.4132 63.9981 41.4132 69.1464C41.4132 79.4244 33.0513 87.7861 22.7735 87.7861C12.4957 87.7861 4.13376 79.4242 4.13376 69.1464C4.13376 58.8666 12.4957 50.5067 22.7735 50.5067C23.8043 50.5067 24.6374 49.6716 24.6374 48.6427C24.6374 47.612 23.8043 46.7788 22.7735 46.7788C10.4395 46.7788 0.405731 56.8127 0.405731 69.1466C0.405513 81.4784 10.4393 91.5141 22.7733 91.5141Z" fill="#D4C17F"/>
<path d="M32.0933 39.3226H33.0382L22.27 65.4686C20.4546 65.7165 19.0453 67.2617 19.0453 69.1462C19.0453 71.2021 20.7172 72.8742 22.7733 72.8742C24.8292 72.8742 26.5013 71.2023 26.5013 69.1462C26.5013 68.2925 26.2032 67.5171 25.7185 66.8871L36.237 41.3468L48.0342 58.475C48.6157 59.3231 49.7734 59.5392 50.6251 58.954C51.475 58.3688 51.6876 57.2093 51.1024 56.3612L39.3667 39.3226H43.2774C46.3604 39.3226 48.8693 36.8136 48.8693 33.7306C48.8693 30.6457 46.3604 28.1387 43.2774 28.1387H32.0935C31.0627 28.1387 30.2296 28.9718 30.2296 30.0026V37.4584C30.2291 38.4877 31.0625 39.3226 32.0933 39.3226ZM33.9572 31.8667H43.2771C44.306 31.8667 45.1411 32.7018 45.1411 33.7306C45.1411 34.7577 44.306 35.5945 43.2771 35.5945H33.9572V31.8667Z" fill="#D4C17F"/>
<path d="M88.0126 48.6425C88.0126 49.6714 88.8458 50.5064 89.8765 50.5064C100.155 50.5064 108.516 58.8664 108.516 69.1462C108.516 79.4242 100.154 87.7859 89.8765 87.7859C79.5987 87.7859 71.2368 79.424 71.2368 69.1462C71.2368 63.5599 73.7104 58.3164 78.0273 54.7563C78.8196 54.1021 78.9332 52.9278 78.277 52.1338C77.6228 51.3415 76.4502 51.2242 75.6525 51.8804C70.478 56.1508 67.5088 62.4417 67.5088 69.1464C67.5088 81.4784 77.5426 91.5141 89.8765 91.5141C102.21 91.5141 112.244 81.4784 112.244 69.1464C112.244 56.8124 102.21 46.7786 89.8765 46.7786C88.8458 46.7786 88.0126 47.6117 88.0126 48.6425Z" fill="#D4C17F"/>
<path d="M58.1888 95.2459H39.5491C38.5183 95.2459 37.6852 96.081 37.6852 97.1098C37.6852 98.1386 38.5183 98.9737 39.5491 98.9737H58.1888C59.2196 98.9737 60.0527 98.1386 60.0527 97.1098C60.0529 96.081 59.2196 95.2459 58.1888 95.2459Z" fill="#D4C17F"/>
<path d="M58.1888 60.0912V54.2345C59.2196 54.2345 60.0527 53.3994 60.0527 52.3706C60.0527 51.3398 59.2196 50.5067 58.1888 50.5067H54.4608C53.43 50.5067 52.5969 51.3398 52.5969 52.3706C52.5969 53.3994 53.43 54.2345 54.4608 54.2345V60.0912C51.2528 60.9243 48.8688 63.8172 48.8688 67.2825C48.8688 70.7458 51.2528 73.6387 54.4608 74.4738V80.3305C53.43 80.3305 52.5969 81.1636 52.5969 82.1944C52.5969 83.2232 53.43 84.0583 54.4608 84.0583H58.1888C59.2196 84.0583 60.0527 83.2232 60.0527 82.1944C60.0527 81.1636 59.2196 80.3305 58.1888 80.3305V74.4738C61.3967 73.6387 63.7808 70.7458 63.7808 67.2825C63.7808 63.8172 61.3967 60.9243 58.1888 60.0912ZM56.3249 71.0103C54.2707 71.0103 52.5969 69.3384 52.5969 67.2823C52.5969 65.2264 54.2707 63.5542 56.3249 63.5542C58.3808 63.5542 60.0529 65.2261 60.0529 67.2823C60.0529 69.3384 58.3808 71.0103 56.3249 71.0103Z" fill="#D4C17F"/>
<path d="M87.0041 66.7978C86.4786 67.4408 86.1485 68.2517 86.1485 69.1464C86.1485 71.2023 87.8224 72.8744 89.8765 72.8744C91.9307 72.8744 93.6046 71.2025 93.6046 69.1464C93.6046 67.301 92.2531 65.7764 90.4936 65.4799L82.0815 43.0506H95.3883C97.6194 43.0506 98.9169 41.2669 99.1609 39.688L101.023 30.368C101.133 29.82 100.991 29.2516 100.637 28.8209C100.283 28.3884 99.7557 28.1387 99.1965 28.1387H82.4207C81.3899 28.1387 80.5568 28.9718 80.5568 30.0026C80.5568 31.0314 81.3899 31.8665 82.4207 31.8665H96.9224L95.4984 38.9982C95.4704 39.1268 95.3903 39.3077 95.3885 39.3226H80.6837L74.8475 23.7564C74.8438 23.749 74.8382 23.7453 74.8364 23.7379C74.8327 23.7304 74.8344 23.723 74.8327 23.7173L71.1047 14.3974C70.7226 13.4411 69.6285 12.9826 68.6816 13.3591C67.7252 13.7412 67.2593 14.8262 67.6414 15.7822L71.0376 24.2652L64.0271 36.5338C63.5145 37.4268 63.8257 38.5655 64.7205 39.0764C65.0112 39.2422 65.3299 39.3223 65.6431 39.3223C66.2919 39.3223 66.9199 38.9851 67.2628 38.3829L72.7504 28.7815L77.235 40.7426L63.0296 56.7225C62.3437 57.4922 62.4144 58.6702 63.1842 59.3544C63.5383 59.6713 63.9802 59.826 64.4219 59.826C64.9345 59.826 65.447 59.6134 65.8142 59.1997L78.7147 44.6886L87.0041 66.7978Z" fill="#D4C17F"/>
<path d="M110.38 95.2459H80.5566C79.5258 95.2459 78.6927 96.081 78.6927 97.1098C78.6927 98.1386 79.5258 98.9737 80.5566 98.9737H110.38C111.411 98.9737 112.244 98.1386 112.244 97.1098C112.244 96.081 111.411 95.2459 110.38 95.2459Z" fill="#D4C17F"/>
<path d="M73.1007 95.2459H69.3727C68.3419 95.2459 67.5088 96.081 67.5088 97.1098C67.5088 98.1386 68.3419 98.9737 69.3727 98.9737H73.1007C74.1315 98.9737 74.9646 98.1386 74.9646 97.1098C74.9646 96.081 74.1315 95.2459 73.1007 95.2459Z" fill="#D4C17F"/>
</g>
<defs>
<clipPath id="clip0_5_62">
<rect width="111.839" height="111.839" fill="white" transform="translate(0.405518 0.181396)"/>
</clipPath>
</defs>
</svg>
