<svg width="112" height="113" viewBox="0 0 112 113" fill="none" xmlns="http://www.w3.org/2000/svg">
<g clip-path="url(#clip0_3_18)">
<path d="M80.1687 104.564H27.9773C26.9485 104.564 26.1134 105.399 26.1134 106.428V110.156C26.1134 111.185 26.9485 112.02 27.9773 112.02C29.0062 112.02 29.8412 111.185 29.8412 110.156V108.292H80.1687C81.1975 108.292 82.0326 107.457 82.0326 106.428C82.0326 105.4 81.1978 104.564 80.1687 104.564Z" fill="#D4C17F"/>
<path d="M41.0251 46.7808C41.0251 47.8097 41.8602 48.6447 42.889 48.6447H50.3451C51.3739 48.6447 52.209 47.8097 52.209 46.7808V35.5969C52.209 34.5681 51.3739 33.733 50.3451 33.733H42.8892C41.8604 33.733 41.0253 34.5681 41.0253 35.5969V46.7808H41.0251ZM44.7532 37.4611H48.4812V44.9169H44.7532V37.4611Z" fill="#D4C17F"/>
<path d="M24.2493 22.5492H1.88155C0.852717 22.5492 0.0176392 23.3842 0.0176392 24.4131V61.6927C0.0176392 62.7216 0.852717 63.5566 1.88155 63.5566C2.91038 63.5566 3.74545 62.7216 3.74545 61.6927V26.2772H24.2493C25.2781 26.2772 26.1132 25.4421 26.1132 24.4133C26.1132 23.3845 25.2784 22.5492 24.2493 22.5492Z" fill="#D4C17F"/>
<path d="M89.4887 91.5163C89.4887 92.5452 90.3238 93.3802 91.3526 93.3802H98.8084C99.8373 93.3802 100.672 92.5452 100.672 91.5163V80.3325C100.672 79.3036 99.8373 78.4686 98.8084 78.4686H91.3526C90.3238 78.4686 89.4887 79.3036 89.4887 80.3325V91.5163ZM93.2167 82.1966H96.9447V89.6524H93.2167V82.1966Z" fill="#D4C17F"/>
<path d="M9.33761 67.2847C0.123799 67.2847 0.0176392 91.2741 0.0176392 91.5163C0.0176392 96.0178 3.22558 99.7813 7.47349 100.648V110.156C7.47349 111.185 8.30856 112.02 9.33739 112.02C10.3662 112.02 11.2013 111.185 11.2013 110.156V100.648C15.4492 99.7813 18.6571 96.0178 18.6571 91.5163C18.6574 91.2741 18.5512 67.2847 9.33761 67.2847ZM9.33761 97.1083C6.25462 97.1083 3.74567 94.5993 3.74567 91.5163C3.74567 82.23 6.23976 71.0125 9.33761 71.0125C12.4355 71.0125 14.9296 82.23 14.9296 91.5163C14.9296 94.5993 12.4206 97.1083 9.33761 97.1083Z" fill="#D4C17F"/>
<path d="M20.5215 56.1008H13.0654C12.0366 56.1008 11.2015 56.9359 11.2015 57.9647V61.6927C11.2015 62.7216 12.0366 63.5566 13.0654 63.5566C14.0943 63.5566 14.9293 62.7216 14.9293 61.6927V59.8288H18.6574V69.1488C18.6574 70.1776 19.4924 71.0127 20.5213 71.0127C21.5501 71.0127 22.3852 70.1776 22.3852 69.1488V57.9649C22.3854 56.9359 21.5503 56.1008 20.5215 56.1008Z" fill="#D4C17F"/>
<path d="M91.3526 48.6449H98.8084C99.8373 48.6449 100.672 47.8099 100.672 46.781V35.5972C100.672 34.5683 99.8373 33.7332 98.8084 33.7332H91.3526C90.3238 33.7332 89.4887 34.5683 89.4887 35.5972V46.781C89.4887 47.8099 90.3238 48.6449 91.3526 48.6449ZM93.2167 37.4611H96.9447V44.9169H93.2167V37.4611Z" fill="#D4C17F"/>
<path d="M20.5215 33.733H13.0654C12.0366 33.733 11.2015 34.5681 11.2015 35.5969V46.7808C11.2015 47.8097 12.0366 48.6447 13.0654 48.6447H20.5213C21.5501 48.6447 22.3852 47.8097 22.3852 46.7808V35.5969C22.3854 34.5681 21.5503 33.733 20.5215 33.733ZM18.6574 44.9169H14.9296V37.4611H18.6576V44.9169H18.6574Z" fill="#D4C17F"/>
<path d="M59.6651 46.7808C59.6651 47.8097 60.5001 48.6447 61.529 48.6447H68.9848C70.0136 48.6447 70.8487 47.8097 70.8487 46.7808V35.5969C70.8487 34.5681 70.0136 33.733 68.9848 33.733H61.529C60.5001 33.733 59.6651 34.5681 59.6651 35.5969V46.7808ZM63.3929 37.4611H67.1209V44.9169H63.3929V37.4611Z" fill="#D4C17F"/>
<path d="M109.993 22.5492H87.6248C86.5959 22.5492 85.7608 23.3842 85.7608 24.4131C85.7608 25.4419 86.5959 26.277 87.6248 26.277H108.129V101.179C107.543 100.97 106.923 100.836 106.265 100.836C105.942 100.836 105.622 100.864 105.307 100.92C104.021 98.6033 101.573 97.1083 98.8089 97.1083C96.0446 97.1083 93.5972 98.6033 92.3111 100.92C91.9961 100.864 91.6754 100.836 91.353 100.836C88.27 100.836 85.7611 103.345 85.7611 106.428C85.7611 109.511 88.27 112.02 91.353 112.02H106.264C109.347 112.02 111.856 109.511 111.856 106.428V24.4131C111.856 23.3842 111.021 22.5492 109.993 22.5492ZM106.264 108.292H91.3526C90.3255 108.292 89.4887 107.455 89.4887 106.428C89.4887 105.401 90.3255 104.564 91.3526 104.564C91.7104 104.564 92.0496 104.667 92.3628 104.868C92.8735 105.196 93.5112 105.256 94.0741 105.029C94.637 104.801 95.0526 104.313 95.1887 103.722C95.5821 102.024 97.0714 100.836 98.8086 100.836C100.546 100.836 102.035 102.024 102.429 103.722C102.565 104.313 102.98 104.801 103.543 105.029C104.104 105.256 104.744 105.196 105.254 104.868C106.468 104.085 108.129 105.043 108.129 106.428C108.128 107.455 107.292 108.292 106.264 108.292Z" fill="#D4C17F"/>
<path d="M61.529 26.2772H68.9848C70.0136 26.2772 70.8487 25.4421 70.8487 24.4133V13.2294C70.8487 12.2006 70.0136 11.3655 68.9848 11.3655H61.529C60.5001 11.3655 59.6651 12.2006 59.6651 13.2294V24.4133C59.6651 25.4421 60.5001 26.2772 61.529 26.2772ZM63.3929 15.0933H67.1209V22.5492H63.3929V15.0933Z" fill="#D4C17F"/>
<path d="M59.6651 69.1486C59.6651 70.1774 60.5001 71.0125 61.529 71.0125H68.9848C70.0136 71.0125 70.8487 70.1774 70.8487 69.1486V57.9647C70.8487 56.9359 70.0136 56.1008 68.9848 56.1008H61.529C60.5001 56.1008 59.6651 56.9359 59.6651 57.9647V69.1486ZM63.3929 59.8288H67.1209V67.2847H63.3929V59.8288Z" fill="#D4C17F"/>
<path d="M42.8892 26.2772H50.3451C51.3739 26.2772 52.209 25.4421 52.209 24.4133V13.2294C52.209 12.2006 51.3739 11.3655 50.3451 11.3655H42.8892C41.8604 11.3655 41.0253 12.2006 41.0253 13.2294V24.4133C41.0251 25.4421 41.8602 26.2772 42.8892 26.2772ZM44.7532 15.0933H48.4812V22.5492H44.7532V15.0933Z" fill="#D4C17F"/>
<path d="M54.6135 90.1931C54.278 90.5471 54.0729 91.0319 54.0729 91.5166C54.0729 92.0013 54.278 92.4858 54.6135 92.8401C54.9676 93.1756 55.4523 93.3807 55.937 93.3807C56.4217 93.3807 56.9062 93.1756 57.2605 92.8401C57.596 92.486 57.8012 92.0013 57.8012 91.5166C57.8012 91.0319 57.596 90.5474 57.2605 90.1931C56.5521 89.5032 55.3219 89.5032 54.6135 90.1931Z" fill="#D4C17F"/>
<path d="M41.0251 69.1486C41.0251 70.1774 41.8602 71.0125 42.889 71.0125H50.3451C51.3739 71.0125 52.209 70.1774 52.209 69.1486V57.9647C52.209 56.9359 51.3739 56.1008 50.3451 56.1008H42.8892C41.8604 56.1008 41.0253 56.9359 41.0253 57.9647V69.1486H41.0251ZM44.7532 59.8288H48.4812V67.2847H44.7532V59.8288Z" fill="#D4C17F"/>
<path d="M37.2973 80.3325C37.2973 81.3613 38.1324 82.1964 39.1612 82.1964H44.7532V98.9722C44.7532 100.001 45.5882 100.836 46.6171 100.836C47.6459 100.836 48.481 100.001 48.481 98.9722V82.1964H63.3929V98.9722C63.3929 100.001 64.228 100.836 65.2568 100.836C66.2856 100.836 67.1207 100.001 67.1207 98.9722V82.1964H72.7126C73.7415 82.1964 74.5765 81.3613 74.5765 80.3325C74.5765 79.3036 73.7415 78.4686 72.7126 78.4686H39.1612C38.1324 78.4686 37.2973 79.3036 37.2973 80.3325Z" fill="#D4C17F"/>
<path d="M89.4887 69.1486C89.4887 70.1774 90.3238 71.0125 91.3526 71.0125H98.8084C99.8373 71.0125 100.672 70.1774 100.672 69.1486V57.9647C100.672 56.9359 99.8373 56.1008 98.8084 56.1008H91.3526C90.3238 56.1008 89.4887 56.9359 89.4887 57.9647V69.1486ZM93.2167 59.8288H96.9447V67.2847H93.2167V59.8288Z" fill="#D4C17F"/>
<path d="M80.1687 0.181396H31.7054C30.6765 0.181396 29.8415 1.01647 29.8415 2.0453V98.9722C29.8415 100.001 30.6765 100.836 31.7054 100.836C32.7342 100.836 33.5693 100.001 33.5693 98.9722V3.90921H78.3048V98.9722C78.3048 100.001 79.1399 100.836 80.1687 100.836C81.1975 100.836 82.0326 100.001 82.0326 98.9722V2.0453C82.0328 1.01647 81.1978 0.181396 80.1687 0.181396Z" fill="#D4C17F"/>
</g>
<defs>
<clipPath id="clip0_3_18">
<rect width="111.839" height="111.839" fill="white" transform="translate(0.0176392 0.181396)"/>
</clipPath>
</defs>
</svg>
