<svg width="113" height="113" viewBox="0 0 113 113" fill="none" xmlns="http://www.w3.org/2000/svg">
<g clip-path="url(#clip0_5_2)">
<path d="M74.8439 6.64271C75.0993 6.64271 75.3566 6.5905 75.6045 6.47866C76.1375 6.24013 76.6781 6.01449 77.2262 5.80763C78.1899 5.44044 78.6744 4.36487 78.3072 3.4031C77.9418 2.43937 76.8645 1.96231 75.9044 2.3201C75.2874 2.55492 74.6779 2.80852 74.0796 3.07698C73.1401 3.49834 72.719 4.60166 73.1421 5.54114C73.4516 6.23249 74.1301 6.64271 74.8439 6.64271Z" fill="#D4C17F"/>
<path d="M74.7657 47.0666C75.7965 47.0666 76.6296 46.2335 76.6296 45.2027V44.8803C76.6296 44.3902 76.6613 43.9092 76.7229 43.4358C76.857 42.4144 76.1375 41.4787 75.1198 41.3445C74.0685 41.2104 73.1626 41.9297 73.0266 42.9494C72.9446 43.5793 72.9016 44.2298 72.9016 44.8806V45.203C72.9018 46.2335 73.7349 47.0666 74.7657 47.0666Z" fill="#D4C17F"/>
<path d="M65.4458 47.5271C66.4766 47.5271 67.3097 46.692 67.3097 45.6632V43.7694C67.3097 42.7406 66.4766 41.9055 65.4458 41.9055C64.415 41.9055 63.5819 42.7406 63.5819 43.7694V45.6632C63.5819 46.692 64.415 47.5271 65.4458 47.5271Z" fill="#D4C17F"/>
<path d="M76.1488 18.0445C75.5486 18.3744 74.9614 18.7304 74.3968 19.109C73.5412 19.6813 73.3101 20.8405 73.8824 21.6961C74.2421 22.233 74.833 22.5218 75.4333 22.5218C75.7911 22.5218 76.1508 22.4211 76.4678 22.2068C76.9468 21.8881 77.4407 21.588 77.9476 21.3084C78.848 20.8125 79.1779 19.6773 78.682 18.7772C78.1842 17.875 77.0527 17.5507 76.1488 18.0445Z" fill="#D4C17F"/>
<path d="M49.7102 17.8545C50.0625 18.4174 50.6682 18.727 51.289 18.727C51.6282 18.727 51.9712 18.6357 52.277 18.4417C53.1494 17.8936 53.414 16.7436 52.8661 15.8731C52.5138 15.3119 52.1486 14.7641 51.7646 14.2272C51.1663 13.3904 50.0051 13.1947 49.1643 13.7967C48.3255 14.3969 48.1335 15.5601 48.7318 16.3969C49.0726 16.8722 49.3989 17.3587 49.7102 17.8545Z" fill="#D4C17F"/>
<path d="M83.7893 4.12632C83.8657 4.12632 83.9459 4.12064 84.0241 4.11147C84.6001 4.03873 85.1835 3.98281 85.7724 3.94175C86.8013 3.87272 87.5767 2.98544 87.5096 1.95858C87.4426 0.931498 86.5405 0.154307 85.5265 0.223114C84.8629 0.265927 84.2067 0.331239 83.5582 0.413152C82.5368 0.54181 81.8116 1.47365 81.9422 2.49527C82.0595 3.43651 82.8629 4.12632 83.7893 4.12632Z" fill="#D4C17F"/>
<path d="M76.8776 34.7421C76.1786 35.497 76.2214 36.677 76.9746 37.376C77.3363 37.7096 77.7891 37.8736 78.2439 37.8736C78.7452 37.8736 79.243 37.6742 79.6119 37.2771C79.9997 36.8596 80.4265 36.4643 80.8813 36.1028C81.6884 35.4617 81.8225 34.2891 81.1814 33.4839C80.542 32.6788 79.3677 32.5407 78.5626 33.1838C77.9606 33.6609 77.394 34.1867 76.8776 34.7421Z" fill="#D4C17F"/>
<path d="M59.9731 18.4417C60.2807 18.6354 60.6236 18.727 60.9628 18.727C61.5836 18.727 62.1894 18.4174 62.5417 17.8545C62.853 17.3587 63.1791 16.8722 63.5203 16.3969C64.1186 15.5601 63.9266 14.3969 63.0878 13.7967C62.247 13.1947 61.0858 13.3904 60.4875 14.2272C60.1035 14.7641 59.7363 15.3119 59.386 15.8731C58.8381 16.7436 59.1027 17.8936 59.9731 18.4417Z" fill="#D4C17F"/>
<path d="M74.7657 56.0642C75.7965 56.0642 76.6296 55.2291 76.6296 54.2003V53.2682C76.6296 52.2394 75.7965 51.4043 74.7657 51.4043C73.7349 51.4043 72.9018 52.2394 72.9018 53.2682V54.2003C72.9018 55.2291 73.7349 56.0642 74.7657 56.0642Z" fill="#D4C17F"/>
<path d="M65.4067 38.0543C65.4925 38.0674 65.5764 38.0728 65.6603 38.0728C66.5773 38.0728 67.3789 37.3944 67.5074 36.4586C67.5838 35.8845 67.6863 35.3179 67.813 34.7587C68.0423 33.7542 67.4121 32.7568 66.4076 32.5294C65.403 32.302 64.4039 32.9302 64.1765 33.9348C64.0273 34.6002 63.9043 35.2749 63.811 35.9573C63.6732 36.9769 64.389 37.9164 65.4067 38.0543Z" fill="#D4C17F"/>
<path d="M52.7167 24.1976C52.903 24.7494 53.0708 25.3066 53.2257 25.8732C53.4513 26.7026 54.2043 27.2489 55.0225 27.2489C55.1846 27.2489 55.3486 27.2267 55.5127 27.1819C55.7438 27.1203 55.9452 27.0084 56.1258 26.8763C56.3067 27.0087 56.5079 27.1205 56.739 27.1819C56.903 27.2267 57.0671 27.2489 57.2291 27.2489C58.0474 27.2489 58.8006 26.7028 59.026 25.8732C59.1806 25.3066 59.3467 24.7492 59.5349 24.1976C59.8685 23.2227 59.3449 22.164 58.3718 21.8322C57.4771 21.5266 56.5339 21.9646 56.1256 22.7922C55.7174 21.9646 54.7742 21.5266 53.8794 21.8322C52.905 22.164 52.3832 23.2227 52.7167 24.1976Z" fill="#D4C17F"/>
<path d="M67.0098 11.6566C67.444 11.6566 67.8802 11.5057 68.2326 11.1999C68.6742 10.8159 69.1273 10.443 69.5895 10.0872C70.406 9.45897 70.5569 8.29034 69.9307 7.47383C69.3025 6.65732 68.1319 6.50267 67.3173 7.13264C66.7935 7.53521 66.2828 7.95286 65.787 8.38711C65.0098 9.06185 64.9276 10.2399 65.6044 11.0173C65.9715 11.4406 66.4897 11.6566 67.0098 11.6566Z" fill="#D4C17F"/>
<path d="M68.458 24.7046C68.048 25.2489 67.6603 25.8119 67.2968 26.3896C66.747 27.2601 67.0098 28.4121 67.8802 28.9619C68.1898 29.1539 68.5307 29.2472 68.8719 29.2472C69.4908 29.2472 70.0965 28.9396 70.4508 28.3767C70.7603 27.8865 71.0882 27.4093 71.4368 26.9488C72.0556 26.1268 71.8916 24.958 71.0696 24.3374C70.2457 23.7166 69.0768 23.8864 68.458 24.7046Z" fill="#D4C17F"/>
<path d="M85.9068 15.1313C85.2172 15.1835 84.5387 15.2654 83.8694 15.3755C82.8535 15.5432 82.1659 16.5033 82.3336 17.519C82.4828 18.4323 83.2712 19.079 84.1696 19.079C84.2703 19.079 84.371 19.0716 84.4734 19.0548C85.042 18.9615 85.6141 18.8927 86.1938 18.8479C87.2209 18.7678 87.9889 17.8713 87.9087 16.8442C87.8283 15.8189 86.9542 15.0437 85.9068 15.1313Z" fill="#D4C17F"/>
<path d="M92.8034 4.26417C93.3831 4.35744 93.9609 4.46731 94.5312 4.59226C94.6673 4.62218 94.7997 4.63507 94.9321 4.63507C95.7894 4.63507 96.5594 4.04224 96.7514 3.17178C96.9714 2.16523 96.3357 1.17179 95.3292 0.951825C94.6881 0.810279 94.043 0.689048 93.3888 0.584636C92.3729 0.416878 91.4185 1.11587 91.2565 2.13181C91.0942 3.14775 91.7857 4.10384 92.8034 4.26417Z" fill="#D4C17F"/>
<path d="M95.9926 16.4714C95.3495 16.242 94.6953 16.0371 94.0334 15.8619C93.0437 15.6046 92.0203 16.1918 91.7538 17.1872C91.4911 18.1826 92.0837 19.202 93.0791 19.4668C93.6402 19.614 94.1918 19.7855 94.7324 19.9812C94.9412 20.0557 95.1518 20.0911 95.3624 20.0911C96.1267 20.0911 96.8442 19.6157 97.1164 18.8552C97.4652 17.8862 96.96 16.818 95.9926 16.4714Z" fill="#D4C17F"/>
<path d="M87.0549 29.987C86.026 30.0392 85.2338 30.9134 85.286 31.9405C85.3362 32.9693 86.1433 33.7522 87.2394 33.7094C87.8117 33.6814 88.4026 33.6982 88.9692 33.7559C89.0345 33.7633 89.0996 33.7653 89.1632 33.7653C90.1081 33.7653 90.9152 33.0515 91.0159 32.0934C91.1204 31.0683 90.3748 30.153 89.3515 30.0467C88.5964 29.9702 87.8155 29.9462 87.0549 29.987Z" fill="#D4C17F"/>
<path d="M108.804 12.585C109.171 12.9876 109.676 13.1927 110.181 13.1927C110.631 13.1927 111.08 13.0323 111.437 12.7062C112.198 12.0129 112.252 10.8329 111.559 10.0723C111.335 9.82812 111.108 9.58762 110.878 9.3528C110.155 8.61646 108.977 8.60728 108.243 9.32659C107.505 10.0461 107.495 11.2259 108.213 11.9622C108.414 12.1656 108.612 12.3744 108.804 12.585Z" fill="#D4C17F"/>
<path d="M80.3577 70.9759H57.9899C56.9592 70.9759 56.126 71.8109 56.126 72.8398C56.126 73.8686 56.9592 74.7037 57.9899 74.7037H80.3577C85.5841 74.7037 89.6776 70.6104 89.6776 65.3837V61.6557C89.6776 60.6269 88.8445 59.7918 87.8137 59.7918H24.4384C23.4076 59.7918 22.5745 60.6269 22.5745 61.6557V65.3837C22.5745 70.6102 26.6677 74.7037 31.8944 74.7037H48.6702V84.0236C48.6702 85.0525 49.5033 85.8875 50.5341 85.8875C51.5649 85.8875 52.398 85.0525 52.398 84.0236V72.8398C52.398 71.8109 51.5649 70.9759 50.5341 70.9759H31.8944C28.7573 70.9759 26.3025 68.5191 26.3025 65.3839V63.52H85.9498V65.3839C85.9496 68.5191 83.4946 70.9759 80.3577 70.9759Z" fill="#D4C17F"/>
<path d="M98.9694 44.0807C98.9879 44.3434 98.9973 44.6119 98.9973 44.8803C98.9973 45.9092 99.8304 46.7442 100.861 46.7442C101.892 46.7442 102.725 45.9092 102.725 44.8803C102.725 44.5225 102.712 44.1682 102.686 43.8159C102.613 42.7908 101.741 42.0154 100.695 42.0881C99.6684 42.1626 98.8966 43.0536 98.9694 44.0807Z" fill="#D4C17F"/>
<path d="M95.0328 33.8492C94.3523 34.6226 94.427 35.7989 95.1985 36.4811C95.6311 36.8614 96.0354 37.2771 96.4008 37.717C96.7717 38.1606 97.3012 38.388 97.8362 38.388C98.2556 38.388 98.6787 38.2465 99.0273 37.9575C99.8176 37.2976 99.9257 36.1233 99.2658 35.3312C98.7794 34.7458 98.2387 34.1906 97.6627 33.6834C96.893 33.0049 95.7149 33.0757 95.0328 33.8492Z" fill="#D4C17F"/>
<path d="M57.9899 42.9118C57.9899 41.883 57.1568 41.0479 56.126 41.0479C55.0953 41.0479 54.2621 41.883 54.2621 42.9118V44.9845C54.2621 46.0134 55.0953 46.8484 56.126 46.8484C57.1568 46.8484 57.9899 46.0134 57.9899 44.9845V42.9118Z" fill="#D4C17F"/>
<path d="M56.126 51.4041C55.0953 51.4041 54.2621 52.2392 54.2621 53.268V54.2001C54.2621 55.2289 55.0953 56.064 56.126 56.064C57.1568 56.064 57.9899 55.2289 57.9899 54.2001V53.268C57.9899 52.2392 57.1566 51.4041 56.126 51.4041Z" fill="#D4C17F"/>
<path d="M63.5819 54.2001C63.5819 55.2289 64.415 56.064 65.4458 56.064C66.4766 56.064 67.3097 55.2289 67.3097 54.2001V53.268C67.3097 52.2392 66.4766 51.4041 65.4458 51.4041C64.415 51.4041 63.5819 52.2392 63.5819 53.268V54.2001Z" fill="#D4C17F"/>
<path d="M57.9899 33.6965C57.9899 33.402 57.9936 33.1113 58.003 32.8186C58.0253 32.0226 57.5389 31.3387 56.8418 31.0534C56.7711 31.0217 56.6909 31.0217 56.6162 30.9995C56.4764 30.9621 56.344 30.9062 56.1931 30.9025C56.1745 30.9005 56.1577 30.9005 56.1372 30.9005C56.1335 30.9005 56.1297 30.9025 56.126 30.9025C56.1223 30.9025 56.1186 30.9005 56.1149 30.9005C56.0944 30.9005 56.0775 30.9005 56.059 30.9025C55.908 30.9062 55.7737 30.9621 55.6359 30.9995C55.5614 31.0217 55.4793 31.0217 55.4102 31.0534C54.7132 31.3387 54.2265 32.0226 54.249 32.8186C54.2584 33.1113 54.2621 33.402 54.2621 33.6965V34.6285C54.2621 35.6574 55.0952 36.4924 56.126 36.4924C57.1568 36.4924 57.9899 35.6574 57.9899 34.6285V33.6965Z" fill="#D4C17F"/>
<path d="M44.9422 54.2001C44.9422 55.2289 45.7753 56.064 46.8061 56.064C47.8369 56.064 48.67 55.2289 48.67 54.2001V53.268C48.67 52.2392 47.8369 51.4041 46.8061 51.4041C45.7753 51.4041 44.9422 52.2392 44.9422 53.268V54.2001Z" fill="#D4C17F"/>
<path d="M46.8061 47.5271C47.8369 47.5271 48.67 46.692 48.67 45.6632V43.7694C48.67 42.7406 47.8369 41.9055 46.8061 41.9055C45.7753 41.9055 44.9422 42.7406 44.9422 43.7694V45.6632C44.9422 46.692 45.7753 47.5271 46.8061 47.5271Z" fill="#D4C17F"/>
<path d="M39.3503 54.2001V53.268C39.3503 52.2392 38.5172 51.4041 37.4864 51.4041C36.4556 51.4041 35.6225 52.2392 35.6225 53.268V54.2001C35.6225 55.2289 36.4556 56.064 37.4864 56.064C38.5172 56.064 39.3503 55.2291 39.3503 54.2001Z" fill="#D4C17F"/>
<path d="M13.2246 37.9575C13.5732 38.2465 13.9944 38.388 14.4157 38.388C14.9507 38.388 15.4801 38.1606 15.851 37.717C16.2165 37.2771 16.6208 36.8614 17.0533 36.4811C17.825 35.7989 17.8995 34.6227 17.2191 33.8492C16.5406 33.0757 15.3626 33.001 14.5889 33.6832C14.0129 34.1901 13.4723 34.7456 12.9841 35.331C12.3262 36.1233 12.4343 37.2976 13.2246 37.9575Z" fill="#D4C17F"/>
<path d="M102.725 89.6158H63.5819V80.2958C63.5819 79.267 62.7488 78.4319 61.718 78.4319C60.6872 78.4319 59.8541 79.267 59.8541 80.2958V91.4797C59.8541 92.5085 60.6872 93.3436 61.718 93.3436H100.861V102.664C100.861 105.747 98.3525 108.255 95.2695 108.255H16.9826C13.8996 108.255 11.3906 105.747 11.3906 102.664V93.3436H54.4168C55.4476 93.3436 56.2807 92.5085 56.2807 91.4797C56.2807 90.4509 55.4476 89.6158 54.4168 89.6158H9.5265C8.49571 89.6158 7.6626 90.4509 7.6626 91.4797V102.664C7.6626 107.802 11.8434 111.983 16.9826 111.983H95.2695C100.408 111.983 104.589 107.803 104.589 102.664V91.4797C104.589 90.4509 103.756 89.6158 102.725 89.6158Z" fill="#D4C17F"/>
<path d="M44.9422 98.9355V102.664C44.9422 103.692 45.7753 104.527 46.8061 104.527C47.8369 104.527 48.67 103.692 48.67 102.664V98.9355C48.67 97.9067 47.8369 97.0716 46.8061 97.0716C45.7753 97.0716 44.9422 97.9067 44.9422 98.9355Z" fill="#D4C17F"/>
<path d="M2.15454 36.4942C2.13226 36.4922 2.10976 36.4922 2.08748 36.4922C1.09033 36.4922 0.26071 37.2845 0.227289 38.291C0.214183 38.6228 0.206757 38.9546 0.206757 39.2882C0.206757 40.317 1.03987 41.1521 2.07066 41.1521C3.10145 41.1521 3.93456 40.317 3.93456 39.2882C3.93456 38.9975 3.94199 38.7104 3.95138 38.4214C3.98677 37.3926 3.18337 36.5296 2.15454 36.4942Z" fill="#D4C17F"/>
<path d="M10.2069 24.5257C10.6244 24.1232 11.0588 23.7392 11.5062 23.3737C12.3039 22.7212 12.4232 21.5469 11.7709 20.7512C11.1204 19.9552 9.94611 19.8322 9.14839 20.4864C8.62087 20.9189 8.1082 21.3718 7.62 21.8453C6.87819 22.5592 6.85766 23.7392 7.57151 24.481C7.93695 24.8593 8.42515 25.0495 8.91357 25.0495C9.37927 25.0493 9.84716 24.8761 10.2069 24.5257Z" fill="#D4C17F"/>
<path d="M5.2786 27.5862C4.35965 27.1277 3.23558 27.4967 2.77709 28.4176C2.4715 29.0253 2.18797 29.6498 1.93459 30.2852C1.55254 31.2432 2.01847 32.3262 2.97281 32.7083C3.2002 32.7996 3.43327 32.8424 3.66437 32.8424C4.40443 32.8424 5.10517 32.3988 5.3959 31.6701C5.61019 31.1314 5.84894 30.6039 6.108 30.0875C6.57021 29.167 6.19931 28.0486 5.2786 27.5862Z" fill="#D4C17F"/>
<path d="M8.63551 7.95853C8.95049 7.95853 9.27115 7.87837 9.56385 7.71061C10.0691 7.41987 10.5815 7.14574 11.1053 6.89039C12.028 6.43561 12.4083 5.31722 11.9553 4.39455C11.5005 3.46992 10.3801 3.09159 9.45944 3.54462C8.8629 3.83732 8.27771 4.14859 7.70366 4.47843C6.81267 4.99284 6.50511 6.13176 7.01953 7.02472C7.36444 7.62302 7.99244 7.95853 8.63551 7.95853Z" fill="#D4C17F"/>
<path d="M26.3023 98.9355V102.664C26.3023 103.692 27.1354 104.527 28.1662 104.527C29.197 104.527 30.0301 103.692 30.0301 102.664V98.9355C30.0301 97.9067 29.197 97.0716 28.1662 97.0716C27.1354 97.0716 26.3023 97.9067 26.3023 98.9355Z" fill="#D4C17F"/>
<path d="M109.279 32.7085C110.233 32.3265 110.699 31.2435 110.317 30.2854C110.064 29.6498 109.78 29.0253 109.475 28.4178C109.014 27.4971 107.894 27.1297 106.973 27.5864C106.053 28.0486 105.681 29.167 106.144 30.0879C106.403 30.6043 106.641 31.1318 106.856 31.6705C107.147 32.3994 107.848 32.8428 108.586 32.8428C108.819 32.8426 109.052 32.7998 109.279 32.7085Z" fill="#D4C17F"/>
<path d="M112.025 38.291C111.991 37.2602 111.078 36.4346 110.098 36.4942C109.069 36.5296 108.265 37.3926 108.301 38.4215C108.31 38.7104 108.318 38.9975 108.318 39.2882C108.318 40.317 109.151 41.1521 110.181 41.1521C111.212 41.1521 112.045 40.317 112.045 39.2882C112.045 38.9547 112.038 38.6228 112.025 38.291Z" fill="#D4C17F"/>
<path d="M104.546 4.47867C103.974 4.14883 103.389 3.83756 102.792 3.54486C101.875 3.09379 100.751 3.47212 100.297 4.39479C99.8435 5.31746 100.224 6.43584 101.147 6.89062C101.67 7.14597 102.183 7.42011 102.686 7.71085C102.981 7.8786 103.301 7.95877 103.615 7.95877C104.26 7.95877 104.888 7.62325 105.233 7.02496C105.747 6.132 105.439 4.99308 104.546 4.47867Z" fill="#D4C17F"/>
<path d="M85.9496 102.664V98.9355C85.9496 97.9067 85.1165 97.0716 84.0857 97.0716C83.0549 97.0716 82.2218 97.9067 82.2218 98.9355V102.664C82.2218 103.692 83.0549 104.527 84.0857 104.527C85.1165 104.527 85.9496 103.692 85.9496 102.664Z" fill="#D4C17F"/>
<path d="M67.3099 102.664V98.9355C67.3099 97.9067 66.4768 97.0716 65.446 97.0716C64.4152 97.0716 63.5821 97.9067 63.5821 98.9355V102.664C63.5821 103.692 64.4152 104.527 65.446 104.527C66.4766 104.527 67.3099 103.692 67.3099 102.664Z" fill="#D4C17F"/>
<path d="M103.104 20.4864C102.304 19.8322 101.13 19.9552 100.481 20.7512C99.8287 21.5472 99.948 22.7215 100.744 23.3737C101.193 23.7392 101.628 24.1229 102.045 24.5257C102.405 24.8761 102.873 25.0495 103.339 25.0495C103.827 25.0495 104.313 24.8595 104.681 24.481C105.394 23.7392 105.374 22.5592 104.632 21.8453C104.144 21.3718 103.631 20.9189 103.104 20.4864Z" fill="#D4C17F"/>
<path d="M11.5564 42.0881C10.492 42.0173 9.63833 42.7908 9.56384 43.8159C9.5396 44.1682 9.52649 44.5223 9.52649 44.8803C9.52649 45.9092 10.3596 46.7442 11.3904 46.7442C12.4212 46.7442 13.2543 45.9092 13.2543 44.8803C13.2543 44.6119 13.2637 44.3434 13.2823 44.0807C13.3552 43.0536 12.5835 42.1626 11.5564 42.0881Z" fill="#D4C17F"/>
<path d="M37.1321 41.3443C36.1144 41.4784 35.3948 42.4142 35.529 43.4356C35.5906 43.909 35.6222 44.39 35.6222 44.8801V45.2025C35.6222 46.2333 36.4553 47.0664 37.4861 47.0664C38.5169 47.0664 39.3501 46.2333 39.3501 45.2025V44.8801C39.3501 44.2296 39.309 43.5791 39.2251 42.9489C39.0892 41.9295 38.172 41.2082 37.1321 41.3443Z" fill="#D4C17F"/>
<path d="M35.0257 5.80763C35.5737 6.01449 36.1141 6.24013 36.6473 6.47866C36.8953 6.5905 37.1526 6.64271 37.4079 6.64271C38.12 6.64271 38.8002 6.23271 39.1098 5.54114C39.5329 4.60166 39.1117 3.49812 38.1722 3.07698C37.5739 2.80852 36.9643 2.55514 36.3474 2.3201C35.3911 1.96231 34.3101 2.43937 33.9449 3.4031C33.5775 4.36487 34.0619 5.44044 35.0257 5.80763Z" fill="#D4C17F"/>
<path d="M34.3044 21.3084C34.8096 21.588 35.3053 21.8881 35.7843 22.2068C36.103 22.4211 36.461 22.5218 36.8188 22.5218C37.4191 22.5218 38.0099 22.2328 38.3697 21.6961C38.942 20.8405 38.7109 19.6813 37.8553 19.109C37.2887 18.7306 36.7033 18.3746 36.1032 18.0445C35.1991 17.5507 34.0678 17.875 33.57 18.7772C33.0742 19.6773 33.404 20.8125 34.3044 21.3084Z" fill="#D4C17F"/>
<path d="M2.07066 13.1927C2.5759 13.1927 3.08092 12.9876 3.44811 12.585C3.64012 12.3744 3.8378 12.1656 4.03898 11.9625C4.75654 11.2261 4.7454 10.0463 4.00905 9.32682C3.27642 8.6073 2.0984 8.62041 1.37342 9.35304C1.14406 9.58785 0.916673 9.82835 0.692996 10.0726C-0.000315607 10.8331 0.0536377 12.0129 0.814227 12.7064C1.17224 13.0323 1.62134 13.1927 2.07066 13.1927Z" fill="#D4C17F"/>
<path d="M31.3704 36.1028C31.8252 36.4643 32.252 36.8596 32.6397 37.2771C33.0089 37.6742 33.5065 37.8736 34.0078 37.8736C34.4608 37.8736 34.9156 37.7096 35.2771 37.376C36.0303 36.677 36.0731 35.497 35.3741 34.7421C34.8577 34.1866 34.2911 33.6611 33.6891 33.1838C32.8783 32.5427 31.7077 32.6786 31.0703 33.4839C30.4292 34.2891 30.5633 35.4617 31.3704 36.1028Z" fill="#D4C17F"/>
<path d="M41.8013 28.3765C42.1554 28.9394 42.7613 29.247 43.3802 29.247C43.7214 29.247 44.0623 29.1537 44.3719 28.9617C45.2423 28.4119 45.5051 27.2599 44.9553 26.3894C44.5899 25.8116 44.2021 25.2487 43.7941 24.7044C43.1733 23.8861 42.0066 23.7164 41.1827 24.3372C40.3607 24.958 40.1967 26.1266 40.8155 26.9486C41.1637 27.4093 41.4918 27.8863 41.8013 28.3765Z" fill="#D4C17F"/>
<path d="M42.6624 10.0872C43.1246 10.4432 43.5776 10.8161 44.0193 11.1999C44.3716 11.5074 44.8079 11.6566 45.2421 11.6566C45.7622 11.6566 46.2803 11.4404 46.6475 11.0173C47.3242 10.2401 47.2421 9.06207 46.4649 8.38711C45.9691 7.95286 45.4584 7.53521 44.9345 7.13264C44.12 6.50267 42.9514 6.65732 42.3212 7.47383C41.6949 8.29034 41.8461 9.45918 42.6624 10.0872Z" fill="#D4C17F"/>
<path d="M17.3198 4.63508C17.4522 4.63508 17.5845 4.62197 17.7187 4.59226C18.291 4.46732 18.8687 4.35745 19.4485 4.26417C20.4661 4.10384 21.1577 3.14775 20.9956 2.13181C20.8353 1.11587 19.8829 0.415136 18.8633 0.584642C18.2091 0.689053 17.5623 0.810285 16.9229 0.95183C15.9164 1.17179 15.2807 2.16524 15.5007 3.17178C15.6925 4.04246 16.4625 4.63508 17.3198 4.63508Z" fill="#D4C17F"/>
<path d="M26.4794 3.94175C27.0686 3.98281 27.6518 4.03873 28.2278 4.11147C28.306 4.12086 28.3862 4.12632 28.4626 4.12632C29.389 4.12632 30.1924 3.43672 30.3097 2.49527C30.4401 1.47387 29.7151 0.541809 28.6937 0.413151C28.045 0.331238 27.389 0.265926 26.7271 0.223113C25.7226 0.148627 24.8091 0.931497 24.742 1.95858C24.6752 2.98544 25.4504 3.87272 26.4794 3.94175Z" fill="#D4C17F"/>
<path d="M45.8443 32.5296C44.8397 32.757 44.2096 33.7541 44.4369 34.7589C44.5656 35.3181 44.6663 35.8848 44.7445 36.4588C44.8732 37.3946 45.6728 38.073 46.5918 38.073C46.6757 38.073 46.7596 38.0674 46.8434 38.0545C47.8631 37.9166 48.5789 36.9771 48.4408 35.9575C48.3476 35.2753 48.2246 34.6006 48.0754 33.935C47.848 32.9322 46.8434 32.304 45.8443 32.5296Z" fill="#D4C17F"/>
<path d="M16.8893 20.0913C17.0981 20.0913 17.3106 20.0559 17.5192 19.9814C18.0599 19.7857 18.6116 19.6142 19.1726 19.467C20.168 19.2022 20.7606 18.1828 20.4978 17.1874C20.2331 16.192 19.2117 15.6048 18.2182 15.8622C17.5566 16.0373 16.9022 16.2425 16.2591 16.4716C15.2916 16.8182 14.7866 17.8864 15.135 18.8556C15.4074 19.616 16.125 20.0913 16.8893 20.0913Z" fill="#D4C17F"/>
<path d="M26.0581 18.848C26.6378 18.8927 27.2101 18.9618 27.7785 19.0548C27.8809 19.0716 27.9816 19.0791 28.0823 19.0791C28.979 19.0791 29.7693 18.4323 29.9183 17.519C30.086 16.5031 29.3982 15.5433 28.3824 15.3755C27.7134 15.2656 27.0347 15.1835 26.3451 15.1313C25.3311 15.0417 24.4233 15.8172 24.3432 16.8443C24.2632 17.8713 25.031 18.7678 26.0581 18.848Z" fill="#D4C17F"/>
<path d="M23.0889 33.7653C23.1522 33.7653 23.2176 33.7633 23.2826 33.7559C23.8493 33.698 24.4401 33.6814 25.0124 33.7094C26.0843 33.7579 26.9157 32.9693 26.9659 31.9405C27.0181 30.9134 26.2258 30.0392 25.197 29.987C24.4347 29.946 23.6536 29.9702 22.9006 30.0467C21.8772 30.1528 21.1317 31.0681 21.2361 32.0934C21.3366 33.0515 22.1437 33.7653 23.0889 33.7653Z" fill="#D4C17F"/>
</g>
<defs>
<clipPath id="clip0_5_2">
<rect width="111.839" height="111.839" fill="white" transform="translate(0.206543 0.181396)"/>
</clipPath>
</defs>
</svg>
