<svg width="137" height="68" viewBox="0 0 137 68" fill="none" xmlns="http://www.w3.org/2000/svg">
<path d="M13.4062 37V12.3906H16.4648V23.1133H19.6289V26.1016H16.4648V37H13.4062ZM21.3867 26.1016V23.1133H24.5156V12.3906H27.6094V37H24.5156V26.1016H21.3867ZM30.3867 30.1445V18.5781C30.3867 17.3359 30.9141 16.0703 31.9688 14.7812C33.375 13.0938 35.1562 12.2383 37.3125 12.2148V15.2734C35.8828 15.2734 34.7695 16 33.9727 17.4531C33.6445 18.0859 33.4805 18.6484 33.4805 19.1406V30.1445C33.4805 31.6211 34.207 32.7695 35.6602 33.5898C36.2695 33.9414 36.8086 34.1172 37.2773 34.1172V37.1758C35.9414 37.1758 34.6055 36.6953 33.2695 35.7344C31.3711 34.3281 30.4102 32.4648 30.3867 30.1445ZM39.2109 37.1758V34.1172C40.0312 34.1172 40.8633 33.7539 41.707 33.0273C42.5977 32.2305 43.0547 31.2695 43.0781 30.1445V19.1406C43.0781 18.2266 42.7031 17.3477 41.9531 16.5039C41.1797 15.707 40.2656 15.2969 39.2109 15.2734V12.2148C41.5781 12.2148 43.4766 13.2344 44.9062 15.2734C45.7266 16.4453 46.1367 17.5469 46.1367 18.5781V30.1445C46.1367 32.7461 44.9766 34.7383 42.6562 36.1211C41.4375 36.8242 40.2891 37.1758 39.2109 37.1758ZM48.9844 37V12.3906H52.043V37H48.9844ZM53.8008 26.3477V23.5703H57C59.4844 23.5234 60.7383 22.1406 60.7617 19.4219C60.7148 16.6328 59.2969 15.2266 56.5078 15.2031H53.8008V12.3906H57.0703C60.4688 12.5078 62.5664 13.9258 63.3633 16.6445C63.5977 17.418 63.7148 18.2617 63.7148 19.1758C63.6914 21.8945 62.8828 23.8047 61.2891 24.9062C62.6484 25.6328 63.4688 26.957 63.75 28.8789C63.7734 29.043 63.7969 29.207 63.8203 29.3711L64.418 37H61.5352L61.0078 30.7422C60.8203 28.7266 60.3047 27.4375 59.4609 26.875C58.8984 26.5 58.1367 26.3242 57.1758 26.3477H53.8008ZM66.8086 37V12.3906H69.8672V37H66.8086ZM72.5742 37V34.0117L82.0664 15.4141H72.5742V12.3906H85.4414V15.3086L75.9492 33.9062H85.4766L85.4414 37H72.5742ZM88.0781 30.1445V18.5781C88.0781 17.3359 88.6055 16.0703 89.6602 14.7812C91.0664 13.0938 92.8477 12.2383 95.0039 12.2148V15.2734C93.5742 15.2734 92.4609 16 91.6641 17.4531C91.3359 18.0859 91.1719 18.6484 91.1719 19.1406V30.1445C91.1719 31.6211 91.8984 32.7695 93.3516 33.5898C93.9609 33.9414 94.5 34.1172 94.9688 34.1172V37.1758C93.6328 37.1758 92.2969 36.6953 90.9609 35.7344C89.0625 34.3281 88.1016 32.4648 88.0781 30.1445ZM96.9023 37.1758V34.1172C97.7227 34.1172 98.5547 33.7539 99.3984 33.0273C100.289 32.2305 100.746 31.2695 100.77 30.1445V19.1406C100.77 18.2266 100.395 17.3477 99.6445 16.5039C98.8711 15.707 97.957 15.2969 96.9023 15.2734V12.2148C99.2695 12.2148 101.168 13.2344 102.598 15.2734C103.418 16.4453 103.828 17.5469 103.828 18.5781V30.1445C103.828 32.7461 102.668 34.7383 100.348 36.1211C99.1289 36.8242 97.9805 37.1758 96.9023 37.1758ZM106.676 37V17.7695H106.957L109.734 22.2695V37H106.676ZM106.676 14.3594V12.3906H109.312L122.32 33.2383V37H120.809L106.676 14.3594ZM119.262 25.2578V12.3906H122.32V29.7578H122.039L119.262 25.2578Z" fill="white"/>
<path d="M0.312 65L3.624 60.608L0.516 56.48H1.5L4.332 60.272H5.496V56.48H6.324V60.272H7.476L10.32 56.48H11.304L8.184 60.608L11.496 65H10.524L7.5 61.04H6.324V65H5.496V61.04H4.308L1.284 65H0.312ZM14.3802 65V56.48H15.2082V63.848L20.4882 56.48H21.2682V65H20.4402V57.764L15.2202 65H14.3802ZM30.6494 65V57.224H27.1694L27.1214 59.024C27.0814 60.2 26.9974 61.176 26.8694 61.952C26.7414 62.728 26.5614 63.34 26.3294 63.788C26.0974 64.228 25.8134 64.544 25.4774 64.736C25.1414 64.92 24.7414 65.012 24.2774 65.012V64.268C24.5894 64.268 24.8654 64.188 25.1054 64.028C25.3454 63.868 25.5494 63.588 25.7174 63.188C25.8854 62.788 26.0174 62.236 26.1134 61.532C26.2174 60.82 26.2854 59.92 26.3174 58.832L26.3894 56.48H31.4774V65H30.6494ZM38.4802 65.06C37.8802 65.06 37.3362 64.94 36.8482 64.7C36.3602 64.46 35.9402 64.136 35.5882 63.728C35.2362 63.312 34.9642 62.848 34.7722 62.336C34.5802 61.816 34.4842 61.284 34.4842 60.74C34.4842 60.172 34.5842 59.632 34.7842 59.12C34.9842 58.6 35.2642 58.14 35.6242 57.74C35.9922 57.332 36.4202 57.012 36.9082 56.78C37.3962 56.54 37.9242 56.42 38.4922 56.42C39.0922 56.42 39.6362 56.544 40.1242 56.792C40.6122 57.04 41.0282 57.372 41.3722 57.788C41.7242 58.204 41.9962 58.668 42.1882 59.18C42.3802 59.692 42.4762 60.216 42.4762 60.752C42.4762 61.32 42.3762 61.864 42.1762 62.384C41.9762 62.896 41.6962 63.356 41.3362 63.764C40.9762 64.164 40.5522 64.48 40.0642 64.712C39.5762 64.944 39.0482 65.06 38.4802 65.06ZM35.3242 60.74C35.3242 61.204 35.4002 61.652 35.5522 62.084C35.7042 62.508 35.9202 62.888 36.2002 63.224C36.4802 63.552 36.8122 63.816 37.1962 64.016C37.5882 64.208 38.0162 64.304 38.4802 64.304C38.9682 64.304 39.4042 64.204 39.7882 64.004C40.1802 63.796 40.5122 63.524 40.7842 63.188C41.0642 62.844 41.2762 62.46 41.4202 62.036C41.5642 61.612 41.6362 61.18 41.6362 60.74C41.6362 60.276 41.5602 59.832 41.4082 59.408C41.2562 58.984 41.0362 58.604 40.7482 58.268C40.4682 57.932 40.1362 57.668 39.7522 57.476C39.3682 57.284 38.9442 57.188 38.4802 57.188C38.0002 57.188 37.5642 57.288 37.1722 57.488C36.7882 57.688 36.4562 57.96 36.1762 58.304C35.9042 58.64 35.6922 59.02 35.5402 59.444C35.3962 59.868 35.3242 60.3 35.3242 60.74ZM45.5479 65V56.48H46.3759V63.848L51.6559 56.48H52.4359V65H51.6079V57.764L46.3879 65H45.5479ZM49.0039 55.76C48.6119 55.76 48.2799 55.704 48.0079 55.592C47.7439 55.472 47.5439 55.312 47.4079 55.112C47.2719 54.904 47.1999 54.68 47.1919 54.44H47.8519C47.8599 54.648 47.9439 54.836 48.1039 55.004C48.2719 55.172 48.5719 55.256 49.0039 55.256C49.4199 55.256 49.7119 55.18 49.8799 55.028C50.0479 54.868 50.1359 54.672 50.1439 54.44H50.8039C50.7959 54.68 50.7239 54.904 50.5879 55.112C50.4519 55.312 50.2519 55.472 49.9879 55.592C49.7319 55.704 49.4039 55.76 49.0039 55.76ZM60.5557 65V56.48H61.3957V60.272H62.6797L65.6077 56.48H66.5797L63.3757 60.608L66.7837 65H65.7517L62.7037 61.04H61.3957V65H60.5557ZM72.5644 65.06C71.9644 65.06 71.4204 64.94 70.9324 64.7C70.4444 64.46 70.0244 64.136 69.6724 63.728C69.3204 63.312 69.0484 62.848 68.8564 62.336C68.6644 61.816 68.5684 61.284 68.5684 60.74C68.5684 60.172 68.6684 59.632 68.8684 59.12C69.0684 58.6 69.3484 58.14 69.7084 57.74C70.0764 57.332 70.5044 57.012 70.9924 56.78C71.4804 56.54 72.0084 56.42 72.5764 56.42C73.1764 56.42 73.7204 56.544 74.2084 56.792C74.6964 57.04 75.1124 57.372 75.4564 57.788C75.8084 58.204 76.0804 58.668 76.2724 59.18C76.4644 59.692 76.5604 60.216 76.5604 60.752C76.5604 61.32 76.4604 61.864 76.2604 62.384C76.0604 62.896 75.7804 63.356 75.4204 63.764C75.0604 64.164 74.6364 64.48 74.1484 64.712C73.6604 64.944 73.1324 65.06 72.5644 65.06ZM69.4084 60.74C69.4084 61.204 69.4844 61.652 69.6364 62.084C69.7884 62.508 70.0044 62.888 70.2844 63.224C70.5644 63.552 70.8964 63.816 71.2804 64.016C71.6724 64.208 72.1004 64.304 72.5644 64.304C73.0524 64.304 73.4884 64.204 73.8724 64.004C74.2644 63.796 74.5964 63.524 74.8684 63.188C75.1484 62.844 75.3604 62.46 75.5044 62.036C75.6484 61.612 75.7204 61.18 75.7204 60.74C75.7204 60.276 75.6444 59.832 75.4924 59.408C75.3404 58.984 75.1204 58.604 74.8324 58.268C74.5524 57.932 74.2204 57.668 73.8364 57.476C73.4524 57.284 73.0284 57.188 72.5644 57.188C72.0844 57.188 71.6484 57.288 71.2564 57.488C70.8724 57.688 70.5404 57.96 70.2604 58.304C69.9884 58.64 69.7764 59.02 69.6244 59.444C69.4804 59.868 69.4084 60.3 69.4084 60.74ZM87.1321 65V58.064L84.0481 63.452H83.5201L80.4241 58.064V65H79.5841V56.48H80.4481L83.7721 62.312L87.1201 56.48H87.9721V65H87.1321ZM91.5475 65V56.48H97.9795V65H97.1395V57.224H92.3875V65H91.5475ZM107.314 65V57.224H103.834L103.786 59.024C103.746 60.2 103.662 61.176 103.534 61.952C103.406 62.728 103.226 63.34 102.994 63.788C102.762 64.228 102.478 64.544 102.142 64.736C101.806 64.92 101.406 65.012 100.942 65.012V64.268C101.254 64.268 101.53 64.188 101.77 64.028C102.01 63.868 102.214 63.588 102.382 63.188C102.55 62.788 102.682 62.236 102.778 61.532C102.882 60.82 102.95 59.92 102.982 58.832L103.054 56.48H108.142V65H107.314ZM117.437 64.256V65H111.713V56.48H117.329V57.224H112.553V60.296H116.717V61.004H112.553V64.256H117.437ZM120.465 65V56.48H121.305V60.272H122.589L125.517 56.48H126.489L123.285 60.608L126.693 65H125.661L122.613 61.04H121.305V65H120.465ZM128.478 60.68C128.478 60.16 128.566 59.652 128.742 59.156C128.926 58.652 129.19 58.196 129.534 57.788C129.878 57.372 130.302 57.044 130.806 56.804C131.31 56.556 131.882 56.432 132.522 56.432C133.282 56.432 133.93 56.608 134.466 56.96C135.01 57.304 135.41 57.748 135.666 58.292L135.006 58.7C134.822 58.324 134.59 58.028 134.31 57.812C134.03 57.588 133.73 57.428 133.41 57.332C133.098 57.236 132.786 57.188 132.474 57.188C131.962 57.188 131.51 57.292 131.118 57.5C130.726 57.7 130.394 57.972 130.122 58.316C129.858 58.652 129.658 59.032 129.522 59.456C129.386 59.872 129.318 60.296 129.318 60.728C129.318 61.2 129.398 61.652 129.558 62.084C129.718 62.516 129.942 62.9 130.23 63.236C130.518 63.564 130.854 63.828 131.238 64.028C131.63 64.22 132.054 64.316 132.51 64.316C132.83 64.316 133.158 64.26 133.494 64.148C133.83 64.036 134.142 63.864 134.43 63.632C134.726 63.4 134.962 63.1 135.138 62.732L135.834 63.092C135.658 63.516 135.386 63.876 135.018 64.172C134.65 64.468 134.238 64.692 133.782 64.844C133.334 64.996 132.894 65.072 132.462 65.072C131.878 65.072 131.342 64.948 130.854 64.7C130.366 64.444 129.942 64.108 129.582 63.692C129.23 63.268 128.958 62.796 128.766 62.276C128.574 61.748 128.478 61.216 128.478 60.68Z" fill="white"/>
</svg>
