<svg width="110" height="26" viewBox="0 0 110 26" fill="none" xmlns="http://www.w3.org/2000/svg">
<path d="M0.40625 25V0.390625H3.46484V11.1133H6.62891V14.1016H3.46484V25H0.40625ZM8.38672 14.1016V11.1133H11.5156V0.390625H14.6094V25H11.5156V14.1016H8.38672ZM17.3867 18.1445V6.57812C17.3867 5.33594 17.9141 4.07031 18.9688 2.78125C20.375 1.09375 22.1562 0.238281 24.3125 0.214844V3.27344C22.8828 3.27344 21.7695 4 20.9727 5.45312C20.6445 6.08594 20.4805 6.64844 20.4805 7.14062V18.1445C20.4805 19.6211 21.207 20.7695 22.6602 21.5898C23.2695 21.9414 23.8086 22.1172 24.2773 22.1172V25.1758C22.9414 25.1758 21.6055 24.6953 20.2695 23.7344C18.3711 22.3281 17.4102 20.4648 17.3867 18.1445ZM26.2109 25.1758V22.1172C27.0312 22.1172 27.8633 21.7539 28.707 21.0273C29.5977 20.2305 30.0547 19.2695 30.0781 18.1445V7.14062C30.0781 6.22656 29.7031 5.34766 28.9531 4.50391C28.1797 3.70703 27.2656 3.29687 26.2109 3.27344V0.214844C28.5781 0.214844 30.4766 1.23438 31.9062 3.27344C32.7266 4.44531 33.1367 5.54688 33.1367 6.57812V18.1445C33.1367 20.7461 31.9766 22.7383 29.6562 24.1211C28.4375 24.8242 27.2891 25.1758 26.2109 25.1758ZM35.9844 25V0.390625H39.043V25H35.9844ZM40.8008 14.3477V11.5703H44C46.4844 11.5234 47.7383 10.1406 47.7617 7.42188C47.7148 4.63281 46.2969 3.22656 43.5078 3.20312H40.8008V0.390625H44.0703C47.4688 0.507813 49.5664 1.92578 50.3633 4.64453C50.5977 5.41797 50.7148 6.26172 50.7148 7.17578C50.6914 9.89453 49.8828 11.8047 48.2891 12.9062C49.6484 13.6328 50.4688 14.957 50.75 16.8789C50.7734 17.043 50.7969 17.207 50.8203 17.3711L51.418 25H48.5352L48.0078 18.7422C47.8203 16.7266 47.3047 15.4375 46.4609 14.875C45.8984 14.5 45.1367 14.3242 44.1758 14.3477H40.8008ZM53.8086 25V0.390625H56.8672V25H53.8086ZM59.5742 25V22.0117L69.0664 3.41406H59.5742V0.390625H72.4414V3.30859L62.9492 21.9062H72.4766L72.4414 25H59.5742ZM75.0781 18.1445V6.57812C75.0781 5.33594 75.6055 4.07031 76.6602 2.78125C78.0664 1.09375 79.8477 0.238281 82.0039 0.214844V3.27344C80.5742 3.27344 79.4609 4 78.6641 5.45312C78.3359 6.08594 78.1719 6.64844 78.1719 7.14062V18.1445C78.1719 19.6211 78.8984 20.7695 80.3516 21.5898C80.9609 21.9414 81.5 22.1172 81.9688 22.1172V25.1758C80.6328 25.1758 79.2969 24.6953 77.9609 23.7344C76.0625 22.3281 75.1016 20.4648 75.0781 18.1445ZM83.9023 25.1758V22.1172C84.7227 22.1172 85.5547 21.7539 86.3984 21.0273C87.2891 20.2305 87.7461 19.2695 87.7695 18.1445V7.14062C87.7695 6.22656 87.3945 5.34766 86.6445 4.50391C85.8711 3.70703 84.957 3.29687 83.9023 3.27344V0.214844C86.2695 0.214844 88.168 1.23438 89.5977 3.27344C90.418 4.44531 90.8281 5.54688 90.8281 6.57812V18.1445C90.8281 20.7461 89.668 22.7383 87.3477 24.1211C86.1289 24.8242 84.9805 25.1758 83.9023 25.1758ZM93.6758 25V5.76953H93.957L96.7344 10.2695V25H93.6758ZM93.6758 2.35938V0.390625H96.3125L109.32 21.2383V25H107.809L93.6758 2.35938ZM106.262 13.2578V0.390625H109.32V17.7578H109.039L106.262 13.2578Z" fill="white"/>
</svg>
