<svg width="17" height="23" viewBox="0 0 17 23" fill="none" xmlns="http://www.w3.org/2000/svg">
<path d="M8.66705 5.32149C7.07149 5.32149 5.7728 6.62018 5.7728 8.21574C5.7728 9.8113 7.07149 11.11 8.66705 11.11C10.2626 11.11 11.5613 9.8113 11.5613 8.21574C11.5613 6.62018 10.2626 5.32149 8.66705 5.32149ZM8.66705 10.2831C7.52713 10.2831 6.59973 9.35566 6.59973 8.21574C6.59973 7.07582 7.52713 6.14842 8.66705 6.14842C9.80697 6.14842 10.7344 7.07582 10.7344 8.21574C10.7344 9.35566 9.80697 10.2831 8.66705 10.2831Z" fill="white"/>
<path d="M14.2007 2.68235C12.7031 1.18479 10.7119 0.359924 8.59414 0.359924C6.47596 0.359924 4.48513 1.18479 2.98756 2.68235C0.21611 5.45339 -0.128305 10.6672 2.24167 13.826L8.59414 23L14.9371 13.8389C17.3166 10.6672 16.9722 5.45339 14.2007 2.68235ZM14.2665 13.3555L8.59414 21.5471L2.91272 13.3427C0.763124 10.4766 1.07115 5.76804 3.57261 3.26699C4.91389 1.92571 6.69716 1.18685 8.59414 1.18685C10.4911 1.18685 12.2744 1.92571 13.6161 3.26699C16.1175 5.76804 16.4256 10.4766 14.2665 13.3555Z" fill="white"/>
</svg>
