<svg width="44" height="44" viewBox="0 0 44 44" fill="none" xmlns="http://www.w3.org/2000/svg">
<g clip-path="url(#clip0_1_20)">
<path d="M21.9817 0.616302C14.9873 0.616302 9.29706 6.30652 9.29706 13.3009V31.0556C9.29706 38.05 14.9873 43.7402 21.9817 43.7402C28.9761 43.7402 34.6663 38.05 34.6663 31.0556V13.3009C34.6663 6.30652 28.9761 0.616302 21.9817 0.616302ZM32.079 31.0556C32.079 36.6231 27.5492 41.1529 21.9817 41.1529C16.4142 41.1529 11.8844 36.6231 11.8844 31.0556V13.3009C11.8844 7.73344 16.4142 3.20363 21.9817 3.20363C27.5492 3.20363 32.079 7.73344 32.079 13.3009V31.0556Z" fill="#D4C17F"/>
<path d="M21.982 9.19489C21.2674 9.19489 20.6884 9.77394 20.6884 10.4886V16.443C20.6884 17.1572 21.2674 17.7366 21.982 17.7366C22.6963 17.7366 23.2757 17.1572 23.2757 16.443V10.4886C23.2757 9.77394 22.6966 9.19489 21.982 9.19489Z" fill="#D4C17F"/>
</g>
<defs>
<clipPath id="clip0_1_20">
<rect width="43.1239" height="43.1239" fill="white" transform="translate(0.453278 0.616302)"/>
</clipPath>
</defs>
</svg>
