<svg width="24" height="23" viewBox="0 0 24 23" fill="none" xmlns="http://www.w3.org/2000/svg">
<g clip-path="url(#clip0_1_41)">
<path d="M23.5455 18.9937C23.4735 18.4496 23.1594 17.9806 22.6839 17.7068L17.0985 14.4909C16.4144 14.097 15.5466 14.2117 14.9882 14.77L13.8881 15.8702C13.5953 16.163 13.1322 16.1889 12.811 15.9304C11.9437 15.2325 11.0897 14.4645 10.2729 13.6476C9.45605 12.8307 8.68801 11.9768 7.99009 11.1095C7.73157 10.7882 7.75744 10.3251 8.05029 10.0323L9.15039 8.93218C9.7087 8.37392 9.82351 7.50618 9.42954 6.82195L6.21369 1.23657C5.93986 0.760988 5.47083 0.446967 4.9268 0.37499C4.38271 0.302865 3.84812 0.484325 3.46006 0.872377L1.80238 2.53011C0.645413 3.68712 0.626832 5.80351 1.75006 8.48951C2.83011 11.0722 4.84568 13.9153 7.42537 16.4951C10.0052 19.0748 12.8483 21.0904 15.431 22.1704C16.7531 22.7233 17.9372 22.9996 18.9368 22.9996C19.968 22.9996 20.8029 22.7055 21.3904 22.1181L23.0481 20.4603C23.4361 20.0723 23.6174 19.5377 23.5455 18.9937ZM16.7326 15.1265L22.318 18.3424C22.5942 18.5014 22.7766 18.7739 22.8183 19.0898C22.8534 19.355 22.7845 19.6161 22.6284 19.8265L15.2054 15.5901L15.5069 15.2887C15.8311 14.9644 16.3353 14.8978 16.7326 15.1265ZM4.83057 1.10215C5.14659 1.14395 5.419 1.32634 5.57802 1.60257L8.79387 7.18795C9.02272 7.58534 8.95602 8.08938 8.63178 8.41357L8.35487 8.69048L4.0952 1.29211C4.26932 1.16317 4.47758 1.09315 4.69468 1.09315C4.73972 1.09315 4.78514 1.09613 4.83057 1.10215ZM20.8717 21.5994C19.9525 22.5186 18.0726 22.4801 15.714 21.4937C13.2173 20.4496 10.4579 18.4902 7.94408 15.9764C5.43025 13.4626 3.47082 10.7032 2.42676 8.20654C1.44034 5.84786 1.40186 3.96794 2.32104 3.04871L3.55165 1.81806L7.81773 9.22762L7.53163 9.51372C6.97346 10.0719 6.92486 10.9556 7.41863 11.5694C8.13297 12.4572 8.91881 13.3309 9.75418 14.1662C10.5896 15.0017 11.4633 15.7875 12.3511 16.5018C12.9648 16.9956 13.8484 16.9471 14.4067 16.3888L14.6678 16.1278L22.101 20.3701L20.8717 21.5994Z" fill="white"/>
</g>
<defs>
<clipPath id="clip0_1_41">
<rect width="22.6401" height="22.6401" fill="white" transform="translate(0.920166 0.359924)"/>
</clipPath>
</defs>
</svg>
